<svg width="1024" height="1024" viewBox="0 0 1024 1024" fill="none" xmlns="http://www.w3.org/2000/svg">
<path d="M591.3 512.6L910.2 193.7C932.2 171.7 932.2 136 910.2 114C888.2 92 852.5 92 830.5 114L511.6 432.9L192.7 114C170.7 92 135 92 113 114C91 136 91 171.7 113 193.7L431.9 512.6L312.3 632.2C290.3 654.2 290.3 689.9 312.3 711.9C334.3 733.9 370 733.9 392 711.9L511.6 592.3L830.5 911.2C852.5 933.2 888.2 933.2 910.2 911.2C932.2 889.2 932.2 853.5 910.2 831.5L591.3 512.6ZM232.6 791.6C210.6 769.6 174.9 769.6 152.9 791.6L113 831.5C91 853.5 91 889.2 113 911.2C135 933.2 170.7 933.2 192.7 911.2L232.6 871.3C254.6 849.3 254.6 813.6 232.6 791.6Z" fill="#E3DFDF"/>
</svg>
