<svg width="80" height="112" viewBox="0 0 80 112" fill="none" xmlns="http://www.w3.org/2000/svg">
<path d="M71.0861 0.985026C70.6535 0.980626 70.2046 0.986526 69.7424 1.01628C66.0442 1.2542 61.4788 2.69455 57.5861 7.23503C52.5076 13.1586 52.302 25.0199 53.8674 27.11C55.8152 29.7042 58.227 29.5382 62.3361 28.6725C66.4453 27.8068 85.7326 10.0464 76.6486 2.04753C76.349 1.78163 74.1142 1.01578 71.0861 0.985026ZM39.4299 5.11003C35.0688 5.11003 30.8914 10.3607 32.0861 15.9225C33.2454 21.3302 34.8368 25.6413 38.0861 25.6413C41.1131 25.6413 43.4582 20.9994 44.6174 15.485C45.7884 9.92023 43.788 5.11003 39.4299 5.11003ZM18.7424 12.9538C18.4947 12.9618 18.2401 12.9616 17.9924 13.0163C14.0285 13.8968 12.5008 19.1728 14.6799 23.86C16.7967 28.4139 19.0678 31.9244 22.0236 31.2663C24.7749 30.6555 25.9595 26.0739 25.9299 20.9538C25.9061 16.4348 22.9058 13.1268 19.4924 12.9538C19.2486 12.9414 18.9901 12.9458 18.7424 12.9538ZM5.17989 24.8913C4.57645 24.9396 3.97344 25.1301 3.39864 25.4225C0.333115 26.9879 0.11475 31.571 2.89864 34.9538C5.60246 38.2387 8.24079 40.6502 10.5236 39.485C12.6582 38.3999 12.6637 34.3334 11.5549 30.1413C10.7166 26.9638 8.24831 25.0248 5.77364 24.8913C5.56742 24.8801 5.38103 24.8752 5.17989 24.8913ZM44.9299 32.8288C44.1374 32.8935 43.3715 32.9751 42.5861 33.0475C43.3516 32.9463 44.231 32.9894 44.9299 32.8288ZM42.5861 33.0475C42.173 33.0856 41.747 33.1199 41.3361 33.1725L41.8674 33.2038C42.0858 33.1242 42.331 33.0813 42.5861 33.0475ZM39.6486 33.3913C37.6808 33.5092 34.9614 34.5445 35.8049 33.61C32.5948 35.0421 26.9117 37.0758 23.7111 40.0788L23.5861 39.3913C22.1194 41.1485 17.2254 44.64 16.8361 46.9225L16.4299 47.0475C15.6688 48.3375 15.1886 49.7819 14.5861 51.11C13.8391 52.385 13.3601 52.1182 13.2424 52.0163C11.2815 55.9953 10.3012 59.3663 9.46114 62.11C10.061 63.0038 9.48488 67.5038 9.71114 71.11C8.72981 88.9186 22.224 106.183 36.9611 110.173C39.1188 110.945 42.3224 110.942 45.0549 111.016C41.8309 110.096 41.3849 110.52 38.2424 109.423C35.9798 108.356 35.5033 107.158 33.8986 105.766L34.5236 106.891C31.3777 105.781 32.7086 105.482 30.1486 104.673L30.8361 103.829C29.8167 103.751 28.1098 102.083 27.6486 101.173L26.5549 101.204C25.2173 99.5514 24.5037 98.3778 24.5549 97.4537L24.1799 98.11C23.7742 97.4121 19.2395 91.8929 21.5861 93.1725C21.1527 92.7763 20.587 92.532 19.9611 91.3912L20.4299 90.8287C19.3029 89.3758 18.3588 87.5423 18.4299 86.9225C19.0289 87.7348 19.4547 87.8463 19.8674 87.985C17.0162 80.9111 16.8402 87.6138 14.6799 80.7975L15.1486 80.7663C14.7993 80.2375 14.5858 79.6718 14.3049 79.11L14.4924 77.1413C12.4396 74.7712 13.9129 67.0306 14.2111 62.7975C14.4149 61.0776 15.9418 59.2694 17.0861 56.3913L16.3986 56.235C17.7328 53.9057 24.0145 46.8761 26.9299 47.235C27.3271 46.7369 27.4528 46.5215 27.4611 46.4538C27.2903 46.4964 26.572 47.0749 26.3986 46.7975C29.5004 43.5909 30.431 44.5329 32.5236 43.9538C34.7793 42.6162 30.6101 44.4828 31.6799 43.4538C35.5809 42.4577 34.4306 41.1771 39.5236 40.6725C39.7608 40.8074 39.5265 40.9277 39.1799 41.0475C42.7642 40.0635 48.6935 40.5718 52.7111 42.4225C58.0139 44.9018 63.9736 52.2156 64.2111 59.11L64.4611 59.2038C64.3294 61.9432 64.8887 65.1035 63.9299 68.0163L64.5549 66.7038C64.611 68.7383 63.9195 69.7433 63.3049 71.5163L62.2111 72.0788C61.2966 73.8568 62.271 73.2256 61.6174 74.6413C60.1879 75.9113 57.2984 78.6095 56.3674 78.86C55.6895 78.8462 56.812 78.0714 56.9611 77.7663C55.0479 79.0805 55.4181 79.717 52.4924 80.5163L52.4299 80.3288C45.2104 83.7253 35.1757 76.9848 35.3049 67.7975C35.2303 68.3801 35.0894 68.251 34.9299 68.485C34.5571 63.7613 37.1197 58.9876 41.4299 57.0475C45.643 54.9644 50.5694 55.8273 53.5861 58.6413C51.9304 56.4706 48.6226 54.178 44.7111 54.3913C40.8812 54.452 37.3163 56.8714 36.1174 59.5163C34.1573 60.7481 33.9392 64.3071 33.0861 64.9538C31.9349 73.4129 35.2256 77.0602 40.8361 81.36C41.2765 81.6565 41.3383 81.8313 41.3049 81.985C47.9219 84.4539 54.7631 83.8547 60.4924 79.2663C61.9488 78.1324 63.5633 76.1681 64.0236 76.1413C63.4191 77.0508 63.9511 76.7697 63.7424 77.2975C64.8054 75.406 63.0651 76.4823 65.0861 73.5475L65.8674 74.6413C65.5761 72.6968 68.2976 70.3099 68.0236 67.235C68.2477 66.8959 68.4209 66.9462 68.4924 67.235C68.4594 66.8017 68.4465 66.3267 68.5236 65.6725C68.7742 66.3357 69.1011 67.0346 69.2736 67.735C68.6807 65.4196 69.8782 63.8322 70.1799 62.485C69.8851 62.3559 69.2908 63.4987 69.1486 60.7663C69.1694 59.5778 69.4361 60.1513 69.5549 59.86C69.3243 59.7283 68.708 58.7978 68.3361 57.0475C68.6031 56.6375 69.0927 58.1422 69.4611 58.2038C69.2279 56.815 68.7901 55.7388 68.7736 54.6725C67.6996 52.4273 68.394 54.9946 67.5236 53.735C66.3828 50.1686 68.4752 52.8848 68.6174 51.2663C70.3477 53.7759 71.3202 57.6547 71.7736 59.2663C71.4286 57.3028 70.8951 55.3888 70.2111 53.5475C70.7399 53.7668 69.3686 49.5357 70.8986 52.36C69.2637 46.3429 63.8981 40.7167 58.9611 38.0788C59.5602 38.6301 60.3288 39.3107 60.0549 39.4225C57.5998 37.9635 58.0327 37.8514 57.6799 37.235C55.6826 36.4219 55.5349 37.2992 54.2111 37.235C50.4419 35.2368 49.7126 35.4564 46.2424 34.2038L46.3986 34.9538C43.9029 34.1242 43.5044 35.2658 40.8049 34.9538C40.6428 34.8289 41.6463 34.4814 42.4924 34.36C40.0816 34.6782 40.2001 33.8642 37.8361 34.4225C38.4152 34.0168 39.0288 33.7398 39.6486 33.3913V33.3913ZM41.6174 33.8288C42.3083 33.9501 43.1077 34.0382 42.9924 34.2038C43.7474 34.0382 43.9233 33.8964 41.6174 33.8288ZM42.9924 34.2038L42.4924 34.3288L42.9611 34.2975L42.9924 34.2038ZM38.3986 41.2975C38.1774 41.3736 37.948 41.4485 37.8361 41.5475C38.0075 41.4636 38.2072 41.3706 38.3986 41.2975ZM11.1174 49.5788C11.3176 51.4443 9.70654 52.1544 11.4611 50.9225C12.4052 48.7952 11.1044 50.3512 11.1174 49.5788ZM9.67989 55.5163C8.55899 56.9484 9.17278 57.2598 9.05489 58.235C9.46059 56.9919 9.52384 56.2375 9.67989 55.5163V55.5163ZM55.8674 64.1725C55.7079 64.1767 55.4705 64.5729 55.3674 65.0163C55.604 65.142 55.8217 66.673 56.0549 65.735C56.1329 64.5699 56.0269 64.1683 55.8674 64.1725ZM68.5236 67.8913C68.5046 68.5334 68.3513 69.4532 68.0549 70.4225C68.5122 69.2236 68.552 68.5296 68.5236 67.8913ZM69.9924 68.11L69.8049 68.5788C69.5461 70.4357 69.0814 72.2811 68.3674 74.0475C69.1753 72.1463 69.7282 70.1409 69.9924 68.11ZM55.0236 68.985C54.8511 69.8415 54.3703 70.5781 53.9299 71.36C51.5087 72.884 53.7028 70.4404 53.9299 69.5163C51.3292 72.794 53.5565 71.5045 53.4611 72.4225C54.2327 71.3588 54.8277 70.1909 55.0236 68.985ZM49.7424 73.985C48.6926 74.2425 47.6038 74.2392 46.5236 74.1413C45.2302 74.1586 46.7716 74.8187 48.4611 75.0788C48.9293 74.7138 49.367 74.3439 49.7424 73.985ZM33.3674 74.1413C33.6517 75.1911 34.2596 76.0991 34.8049 77.0163L34.3986 75.8288C33.9479 75.3312 33.6691 74.7368 33.3674 74.1413ZM32.3674 75.9225L32.2111 76.8288C33.0607 77.9835 33.7178 79.2371 34.8049 80.1413C34.0264 78.6173 33.4371 77.9883 32.3674 75.9225ZM34.0236 77.2663C37.0508 82.6913 46.3279 86.7627 51.1799 84.735C48.9381 84.8156 46.0775 84.7876 43.5549 83.86C42.628 83.3829 41.3912 82.4426 41.2736 82.0788C41.2259 82.194 41.1663 82.3127 41.2111 82.485C39.3491 81.6147 37.6442 80.2884 36.2424 78.6725C36.987 79.7596 37.7655 80.8082 38.8049 81.6413C37.0477 81.0483 34.7076 77.4154 34.0236 77.2663Z" fill="#E3DFDF"/>
</svg>
