<svg width="111" height="110" viewBox="0 0 111 110" fill="none" xmlns="http://www.w3.org/2000/svg">
<path d="M103.13 55C103.13 53.248 103.032 51.52 102.846 49.817L110.003 46.952C109.581 44.105 108.942 41.329 108.099 38.641L100.39 39.133C99.213 35.837 97.68 32.709 95.836 29.792L101.028 24.141C99.408 21.783 97.6069 19.557 95.6479 17.481L88.925 21.229C86.446 18.792 83.702 16.621 80.737 14.761L82.935 7.439C80.463 6.016 77.872 4.77399 75.177 3.73599L70.762 10.002C67.501 8.884 64.077 8.104 60.541 7.703L59.31 0.162994C57.889 0.0549944 56.454 0 55.002 0C53.553 0 52.116 0.0549944 50.694 0.162994L49.465 7.703C45.926 8.104 42.505 8.884 39.243 10.002L34.828 3.73599C32.133 4.77499 29.541 6.015 27.07 7.439L29.267 14.761C26.302 16.62 23.558 18.793 21.079 21.229L14.356 17.481C12.397 19.557 10.596 21.783 8.97699 24.141L14.168 29.792C12.324 32.709 10.792 35.837 9.61398 39.133L1.90497 38.641C1.06097 41.329 0.421969 44.105 -3.05176e-05 46.952L7.15799 49.817C6.97099 51.52 6.87299 53.248 6.87299 55C6.87299 56.752 6.97199 58.48 7.15799 60.183L-3.05176e-05 63.048C0.421969 65.895 1.06197 68.671 1.90497 71.359L9.61398 70.867C10.792 74.163 12.324 77.291 14.168 80.208L8.97699 85.861C10.596 88.217 12.397 90.444 14.356 92.52L21.079 88.772C23.558 91.208 26.302 93.38 29.267 95.239L27.07 102.562C29.541 103.985 32.133 105.227 34.828 106.265L39.243 99.999C42.505 101.117 45.926 101.896 49.465 102.297L50.694 109.838C52.116 109.946 53.552 110.001 55.002 110.001C56.453 110.001 57.889 109.946 59.31 109.838L60.541 102.297C64.077 101.896 67.501 101.117 70.762 99.999L75.177 106.265C77.872 105.227 80.463 103.986 82.935 102.563L80.737 95.239C83.703 93.381 86.447 91.208 88.925 88.772L95.6479 92.52C97.6069 90.444 99.408 88.218 101.028 85.861L95.835 80.208C97.68 77.291 99.213 74.163 100.39 70.867L108.099 71.359C108.943 68.671 109.581 65.895 110.003 63.048L102.846 60.183C103.032 58.481 103.13 56.752 103.13 55ZM55.003 96.454C31.863 96.454 13.103 77.894 13.103 55.001C13.103 32.108 31.864 13.547 55.003 13.547C78.145 13.547 96.905 32.108 96.905 55.001C96.905 77.894 78.145 96.454 55.003 96.454Z" fill="#1C2020"/>
</svg>
