<svg width="110" height="55" viewBox="0 0 110 55" fill="none" xmlns="http://www.w3.org/2000/svg">
<g clip-path="url(#clip0_102_12243)">
<path d="M0 0.5H10" stroke="#1C2020"/>
<path d="M9.5 1C9.5 20 23.5 32 23.5 32C23.5 32 36.5 45 55.5 45C74.5 45 86.5 32 86.5 32C86.5 32 100.5 20 100.5 1" stroke="#1C2020"/>
<path d="M109 0.5H100" stroke="#1C2020"/>
<path d="M109.5 54V0" stroke="#1C2020"/>
<path d="M1 54.5H110" stroke="#1C2020"/>
<path d="M0.5 1V55" stroke="#1C2020"/>
<rect x="100" y="1" width="9" height="53" fill="#1C2020" stroke="#1C2020"/>
<rect x="1" y="45" width="99" height="9" fill="#1C2020" stroke="#1C2020"/>
<rect x="1" y="1" width="9" height="44" fill="#1C2020" stroke="#1C2020"/>
<rect x="10" y="32" width="13" height="13" fill="#1C2020" stroke="#1C2020"/>
<rect x="87" y="31" width="13" height="14" fill="#1C2020" stroke="#1C2020"/>
<rect x="94" y="22" width="6" height="10" fill="#1C2020" stroke="#1C2020"/>
<rect x="95" y="20" width="5" height="4" fill="#1C2020" stroke="#1C2020"/>
<rect x="93" y="24" width="1" height="8" fill="#1C2020" stroke="#1C2020"/>
<rect x="96" y="18" width="4" height="2" fill="#1C2020" stroke="#1C2020"/>
<rect x="99" y="10" width="1" height="8" fill="#1C2020" stroke="#1C2020"/>
<rect x="98" y="13" width="1" height="5" fill="#1C2020" stroke="#1C2020"/>
<rect x="97" y="16" width="1" height="2" fill="#1C2020" stroke="#1C2020"/>
<rect x="92" y="25" width="1" height="7" fill="#1C2020" stroke="#1C2020"/>
<rect x="91" y="27" width="1" height="5" fill="#1C2020" stroke="#1C2020"/>
<rect x="90" y="28" width="1" height="4" fill="#1C2020"/>
<rect x="89" y="29" width="1" height="3" fill="#1C2020" stroke="#1C2020"/>
<rect x="88" y="30" width="1" height="2" fill="#1C2020" stroke="#1C2020"/>
<rect x="78" y="38" width="9" height="7" fill="#1C2020" stroke="#1C2020"/>
<rect x="86" y="32" width="1" height="6" fill="#1C2020" stroke="#1C2020"/>
<rect x="85" y="33" width="1" height="5" fill="#1C2020" stroke="#1C2020"/>
<rect x="80" y="37" width="5" height="1" fill="#1C2020" stroke="#1C2020"/>
<rect x="81" y="36" width="4" height="1" fill="#1C2020" stroke="#1C2020"/>
<rect x="84" y="34" width="1" height="2" fill="#1C2020" stroke="#1C2020"/>
<rect width="1" height="1" transform="matrix(1 0 0 -1 83 36)" fill="#1C2020" stroke="#1C2020"/>
<rect x="62" y="44" width="16" height="1" fill="#1C2020" stroke="#1C2020"/>
<rect x="67" y="43" width="11" height="1" fill="#1C2020" stroke="#1C2020"/>
<rect x="70" y="42" width="8" height="1" fill="#1C2020" stroke="#1C2020"/>
<rect x="72" y="41" width="6" height="1" fill="#1C2020" stroke="#1C2020"/>
<rect x="75" y="40" width="3" height="1" fill="#1C2020" stroke="#1C2020"/>
<rect x="77" y="39" width="1" height="1" fill="#1C2020" stroke="#1C2020"/>
<rect x="23" y="38" width="9" height="7" fill="#1C2020" stroke="#1C2020"/>
<rect x="33" y="41" width="5" height="4" fill="#1C2020" stroke="#1C2020"/>
<rect x="39" y="44" width="10" height="1" fill="#1C2020" stroke="#1C2020"/>
<rect x="39" y="43" width="5" height="1" fill="#1C2020" stroke="#1C2020"/>
<rect x="39" y="42" width="2" height="1" fill="#1C2020" stroke="#1C2020"/>
<rect x="33" y="40" width="3" height="1" fill="#1C2020" stroke="#1C2020"/>
<rect x="33" y="39" width="1" height="1" fill="#1C2020" stroke="#1C2020"/>
<rect x="23" y="35" width="5" height="3" fill="#1C2020" stroke="#1C2020"/>
<rect x="28" y="37" width="3" height="1" fill="#1C2020" stroke="#1C2020"/>
<rect x="28" y="36" width="1" height="1" fill="#1C2020" stroke="#1C2020"/>
<rect x="23" y="33" width="2" height="2" fill="#1C2020" stroke="#1C2020"/>
<rect x="25" y="34" width="1" height="1" fill="#1C2020" stroke="#1C2020"/>
<rect x="23" y="32" width="1" height="1" fill="#1C2020" stroke="#1C2020"/>
<rect x="10" y="22" width="6" height="10" fill="#1C2020" stroke="#1C2020"/>
<rect x="10" y="10" width="1" height="12" fill="#1C2020" stroke="#1C2020"/>
<rect x="11" y="13" width="1" height="9" fill="#1C2020" stroke="#1C2020"/>
<rect x="12" y="20" width="3" height="2" fill="#1C2020" stroke="#1C2020"/>
<rect x="12" y="16" width="1" height="4" fill="#1C2020" stroke="#1C2020"/>
<rect x="13" y="18" width="1" height="2" fill="#1C2020" stroke="#1C2020"/>
<rect x="16" y="27" width="3" height="5" fill="#1C2020" stroke="#1C2020"/>
<rect x="16" y="24" width="1" height="3" fill="#1C2020" stroke="#1C2020"/>
<rect x="17" y="25" width="1" height="2" fill="#1C2020" stroke="#1C2020"/>
<rect x="20" y="30" width="2" height="2" fill="#1C2020" stroke="#1C2020"/>
<rect x="22" y="31" width="1" height="1" fill="#1C2020" stroke="#1C2020"/>
<rect x="20" y="29" width="1" height="1" fill="#1C2020" stroke="#1C2020"/>
<rect x="19" y="28" width="1" height="4" fill="#1C2020" stroke="#1C2020"/>
<rect x="32" y="39" width="1" height="6" fill="#1C2020" stroke="#1C2020"/>
<rect x="38" y="42" width="1" height="3" fill="#1C2020" stroke="#1C2020"/>
</g>
<defs>
<clipPath id="clip0_102_12243">
<rect width="110" height="55" fill="white"/>
</clipPath>
</defs>
</svg>
