<svg width="49" height="55" viewBox="0 0 49 55" fill="none" xmlns="http://www.w3.org/2000/svg">
<path d="M47.877 30.841C47.885 30.692 47.854 30.541 47.782 30.414C47.782 30.307 47.765 30.197 47.707 30.084C44.846 24.524 31.14 3.929 27.143 0.661004C26.986 0.532004 26.817 0.495004 26.656 0.508004C23.74 -2.12 18.335 6.224 17.05 7.876C14.11 11.652 11.062 15.235 7.897 18.825C6.072 20.895 3.666 23.404 2.597 26.099C1.702 27.241 0.928 28.258 0.335 29.078C0.0660004 29.451 0.264 29.807 0.587 29.965C0.594 30.161 0.692 30.351 0.936 30.463C3.42 31.612 5.106 33.904 7.308 35.47C7.46 35.578 7.609 35.607 7.744 35.585C8.024 35.679 8.364 35.627 8.579 35.325C8.787 35.033 9.032 34.706 9.309 34.35C9.397 38.54 9.59 42.728 9.533 46.922C9.515 48.24 8.718 51.129 9.388 52.748C9.292 52.93 9.26 53.147 9.362 53.377C10.209 55.28 15.434 54.306 17.005 54.294C23.943 54.242 31.05 55.255 37.946 54.304C38.339 54.25 38.54 53.936 38.572 53.622C39.98 52.684 39.771 50.727 39.513 48.316C38.953 43.057 38.695 37.585 38.697 32.241C39.43 33.389 40.099 34.4 40.622 35.116C40.877 35.465 41.294 35.469 41.586 35.299C41.652 35.284 41.719 35.272 41.788 35.233C41.913 35.162 42.034 35.084 42.158 35.011C43.848 35.379 47.523 32.666 48.291 31.965C48.763 31.531 48.373 30.921 47.877 30.841ZM37.658 15.421C38.134 16.303 38.629 17.175 39.131 18.042C38.552 17.08 37.813 16.056 37.005 15.004C36.662 14.334 36.34 13.653 36.006 12.978C36.667 13.831 37.247 14.66 37.658 15.421ZM26.082 11.948C26.301 12.385 26.533 12.815 26.76 13.248C26.482 12.879 26.194 12.516 25.909 12.152C25.967 12.085 26.023 12.015 26.082 11.948ZM20.83 7.032C20.88 6.999 20.932 6.969 20.983 6.938C20.942 7.061 20.895 7.183 20.846 7.304C20.722 7.432 20.591 7.55 20.47 7.681C19.471 8.4 18.528 9.263 17.625 10.153C18.676 9.097 19.744 8.053 20.83 7.032ZM5.16 24.903C6.412 23.315 7.705 21.776 9.069 20.294C7.895 22.003 6.586 23.627 5.16 24.903ZM8.033 27.617C7.86 27.813 7.684 27.985 7.508 28.146C7.539 28.11 7.571 28.075 7.602 28.039C9.111 26.323 10.684 24.681 12.193 22.972C12.511 22.727 12.826 22.479 13.137 22.231C13.154 22.241 13.172 22.249 13.19 22.257C11.534 24.097 9.67 25.761 8.033 27.617ZM20.018 52.523C20.219 52.067 20.405 51.605 20.583 51.14C20.541 51.453 20.513 51.77 20.526 52.094C20.534 52.279 20.627 52.443 20.758 52.566C20.513 52.551 20.265 52.536 20.018 52.523ZM21.752 45.23C21.353 45.543 21.023 45.928 20.722 46.334C21.098 45.593 21.616 45.044 22.351 44.835C22.142 44.946 21.947 45.077 21.752 45.23ZM23.388 52.669C23.317 52.668 23.246 52.667 23.175 52.665C23.043 52.662 22.907 52.653 22.774 52.65C22.882 52.62 22.985 52.567 23.065 52.474C23.301 52.198 23.513 51.909 23.711 51.614C23.589 51.965 23.479 52.316 23.388 52.669ZM22.916 46.1C22.915 46.086 22.909 46.076 22.907 46.061C23.038 45.976 23.188 45.92 23.346 45.877C23.183 46.44 23.015 47 22.827 47.552C22.912 47.079 22.957 46.598 22.916 46.1ZM25.84 52.715L25.205 52.703C25.54 52.056 25.861 51.4 26.165 50.739C26.059 51.329 25.946 51.918 25.839 52.509C25.826 52.584 25.834 52.649 25.84 52.715ZM26.607 46.024C26.544 46.207 26.47 46.385 26.405 46.568C26.41 46.138 26.368 45.701 26.274 45.257C26.446 45.415 26.607 45.586 26.754 45.774C26.694 45.843 26.641 45.924 26.607 46.024ZM27.409 52.745C27.338 52.744 27.266 52.743 27.195 52.741C27.381 52.135 27.564 51.53 27.761 50.93C27.772 51.606 27.678 52.255 27.409 52.745ZM36.218 52.851C36.203 52.852 36.193 52.859 36.178 52.86C36.161 52.859 36.15 52.851 36.133 52.851C34.201 52.847 32.271 52.823 30.339 52.794C30.331 48.235 29.976 42.522 24.3 42.052C21.107 41.787 19.377 44.036 18.484 46.746C17.751 48.561 17.491 50.703 17.459 52.383C15.851 52.31 14.248 52.286 12.682 52.431C10.741 52.609 10.538 51.948 10.75 50.127C10.972 48.229 10.914 46.271 10.914 44.364C10.914 40.472 10.701 36.584 10.645 32.693C15.515 26.836 22.838 15.882 24.763 13.523C26.903 15.419 35.077 26.413 37.338 30.072C37.297 33.772 37.517 37.455 37.764 41.146C37.907 43.287 38.03 45.427 38.105 47.57C38.164 49.247 39.416 52.749 36.218 52.851ZM38.705 22.023C38.575 21.754 38.447 21.485 38.317 21.217C38.623 21.695 38.937 22.173 39.261 22.64C39.301 22.74 39.342 22.847 39.386 22.964C39.158 22.657 38.928 22.343 38.705 22.023Z" fill="#F27405"/>
</svg>
