<svg width="53" height="51" viewBox="0 0 53 51" fill="none" xmlns="http://www.w3.org/2000/svg">
<path d="M51.82 18.074C50.332 12.73 46.855 7.91 42.212 4.885C37.292 1.68 30.86 0.716998 25.106 0.587998C17.071 0.403998 6.893 3.49 2.94 11.152C2.611 11.789 3.58 12.336 3.909 11.699C6.71 6.269 13.4 3.133 19.172 2.105C25.381 1.001 32.17 1.869 38.045 4.06C44.179 6.347 48.438 11.597 50.531 17.671C52.861 24.429 51.571 31.159 47.852 37.095C40.174 49.347 21.33 53.324 9.87 44.038C4.62 39.784 1.196 34.093 1.13 27.286C1.091 23.274 1.873 18.794 3.876 15.274C4.497 14.184 5.331 13.25 6.272 12.407C6.286 12.188 6.302 11.971 6.317 11.755C6.208 11.616 6.115 11.466 6.067 11.28C6.062 11.259 6.063 11.243 6.058 11.221C5.486 11.702 4.932 12.207 4.408 12.75C2.117 15.121 1.214 18.41 0.576 21.551C-0.692 27.791 0.0610001 33.625 3.639 38.897C6.702 43.411 11.426 47.612 16.77 49.079C23.19 50.841 29.893 50.692 35.968 47.971C38.717 46.741 41.697 45.533 44.007 43.547C46.84 41.109 48.968 37.666 50.686 34.391C53.305 29.399 53.303 23.397 51.82 18.074Z" fill="#F556E2"/>
<path d="M17.736 30.85C17.839 32 17.857 33.93 19.061 34.448C19.112 34.514 19.166 34.575 19.228 34.622C20.426 35.524 22.096 34.118 23.104 33.513C25.901 31.839 35.69 25.476 37.143 23.236C37.294 23.002 37.241 22.781 37.097 22.627C37.087 22.467 37.016 22.309 36.839 22.199C35.217 21.207 27.969 17.902 25.949 17.154C24.905 16.765 20.356 14.814 19.737 14.799C17.364 13.274 17.716 20.324 17.704 20.951C17.639 24.235 17.444 27.574 17.736 30.85ZM20.96 24.033C20.872 24.072 20.798 24.135 20.743 24.215C20.739 23.916 20.734 23.619 20.732 23.324C20.828 23.379 20.929 23.428 21.03 23.478C21.009 23.66 20.984 23.846 20.96 24.033ZM21.167 28.695C21.23 28.447 21.318 28.197 21.424 27.947C23.007 27.576 24.512 26.801 26.058 26.302C26.812 26.095 27.567 25.888 28.317 25.669C25.981 26.764 23.595 27.74 21.167 28.695ZM24.587 24.762C24.407 24.844 24.225 24.924 24.048 25.012C23.89 24.914 23.729 24.838 23.565 24.768C23.905 24.758 24.246 24.754 24.587 24.762ZM24.108 23.285C24.131 23.271 24.156 23.26 24.182 23.248C24.824 23.385 25.466 23.479 26.126 23.488C26.585 23.543 27.044 23.601 27.504 23.654C27.46 23.67 27.416 23.683 27.371 23.699C26.401 23.598 25.23 23.488 24.108 23.285ZM28.874 22.106C28.113 21.836 27.351 21.557 26.583 21.252C25.318 20.75 24.058 20.393 22.737 20.082C22.324 19.986 21.984 19.822 21.685 19.617C24.175 20.008 26.571 20.971 28.874 22.106ZM22.896 21.258C22.146 21.186 21.387 21.151 20.618 21.153C20.592 20.856 20.562 20.561 20.533 20.264C21.281 20.785 22.06 21.047 22.896 21.258Z" fill="#F556E2"/>
</svg>
