<svg version="1.0" xmlns="http://www.w3.org/2000/svg" viewBox="0 0 775 720"><path d="M371.5 37.4c-13.1 6.4-20 13.6-31.2 32.8-7.2 12.4-31.9 55.2-35 60.8-2 3.4-6.4 11-25.8 44.5-5.4 9.3-12.4 21.5-15.6 27-3.1 5.5-8.4 14.6-11.8 20.3-3.3 5.7-6.1 10.5-6.1 10.7 0 .2-4.4 7.9-9.8 17.1-9.4 16.2-60.8 105.1-64.9 112.4-6.6 11.6-28.9 50.1-30.9 53.2-1.3 2.1-2.4 4-2.4 4.2 0 .2-2.7 5.1-6.1 10.8-3.4 5.7-7.1 12.1-8.4 14.3-4.6 8.2-25.5 44.4-31.4 54.3-3.3 5.7-6.1 10.5-6.1 10.7 0 .1-5.2 9.1-11.5 19.9-20.9 35.9-23.5 42.2-23.5 58 0 8 .4 10.4 2.5 15.3 5.8 12.9 13.9 19.3 32 25.1 4.5 1.5 32.7 1.6 298.5 1.9 260.4.3 294.4.2 301.1-1.2 10-2 17.2-4.9 23.6-9.7 6.3-4.6 9.4-8.6 12.8-16.1 2.1-4.9 2.5-7.3 2.5-15.3 0-18 1.1-15.6-46-96.9-7-12.1-13.7-23.6-14.8-25.5-1.8-3.3-7.3-12.7-11.2-19.5-.9-1.7-5.2-9.1-9.5-16.5s-14.5-25.2-22.8-39.5c-8.2-14.3-27.4-47.4-42.4-73.5-15.1-26.1-31.7-54.7-36.8-63.5-5.1-8.8-10.3-17.8-11.5-20-1.2-2.2-6.4-11.2-11.5-20-21.2-36.5-39.5-68.2-50-86.5-11.4-19.9-21.1-36.7-32.8-56.8-11.2-19.3-18.5-26.8-31.4-32.9-6.5-3-8-3.3-16-3.3-7.9.1-9.5.4-15.8 3.4zm21.8 49c1.8.7 4.6 2.9 6.3 4.7 3.3 3.5 4.8 6.1 44.4 74.9 21.9 38 36.5 63.3 63.5 110 6.2 10.7 20.6 35.7 32 55.5 11.4 19.8 22.4 38.9 24.5 42.5 9.6 16.5 22 37.8 23.8 41 1 1.9 4.5 8 7.7 13.5s9 15.6 13 22.5c3.9 6.9 11.5 19.9 16.7 29 57.9 100 52.3 89.5 52.3 97.2 0 5.7-.4 7-2.5 9.3-1.4 1.5-4.3 3.6-6.5 4.6-3.9 1.8-13.8 1.9-281 1.9s-277.1-.1-281-1.9c-2.2-1-5.1-3.1-6.5-4.5-2.1-2.4-2.5-3.7-2.5-9.4v-6.7l14.4-25c7.9-13.8 15.5-27 16.9-29.5 1.4-2.5 6-10.4 10.2-17.5 4.2-7.2 8.9-15.3 10.4-18 3.3-5.9 27-46.9 32.9-57 2.3-3.9 4.7-7.9 5.3-9 .6-1.1 2.9-5.2 5.1-9 2.2-3.9 5.1-8.8 6.3-11 2-3.6 11.7-20.3 40.5-70 5.1-8.8 10.2-17.6 11.2-19.5 1.1-1.9 5.5-9.6 9.8-17 12.4-21.3 35.6-61.4 50-86.5 49.7-86.3 62.1-107.4 64.9-110.4 5.4-5.8 11.6-7.4 17.9-4.7z"/><path d="M365.7 268c-4.1 1.2-5.3 2.5-10 10.4-8.3 14-12.7 16.5-32.5 18.7-14 1.5-20.4 3.2-27.1 7.1-15.8 9.4-25.9 26.9-26.1 44.8 0 5.8-1.2 8-4.2 8-1.6 0-1.7-.8-1.1-9.5.7-10.8.4-11.2-7.2-10.1-4.2.7-4.5.9-5.5 4.9-1.7 6.9-4.8 12.5-9.5 17.6l-4.5 4.8 1 7.5c1.7 13.9 3 20.4 5.1 26.8 1.5 4.7 2.1 8.7 2 14.7-.2 10.1.8 11.5 10 13.2 11 2 16.1 3.5 16.6 4.7.8 2-2.4 7-7.2 11.2-4.2 3.7-5.7 6.2-3.6 6.2.5 0 4.1-1.4 7.9-3 3.9-1.7 7.8-3 8.6-3 2.2 0 4.6 5.2 4.6 10.2 0 6.4-2.6 18.9-4.2 19.9-.7.5-9.8.9-20.3.9-10.4 0-19.5.4-20.1.8-.6.4-1.6 4-2.2 8-.7 4-2.2 10-3.4 13.4l-2.1 6.2 2.3 1.8c2.5 2 9 2.4 10.8.6.8-.8 1-4 .5-11-.5-8.4-.4-9.8 1-10.4.9-.3 9.8-.2 19.9.3l18.3.8 1.7 8.3c1.8 9.1 3.6 12.7 7.4 14.4 2.1 1 2.8.8 4.9-1.2 3.5-3.3 3.3-8.4-.5-15.3-1.6-3-3-5.8-3-6.1 0-.3 6.1-.6 13.5-.6 15.4 0 12.6-1.4 23.4 12.3 3.4 4.2 6.5 7.7 7 7.7s1.2-4.3 1.6-9.5c1-13.6 3-11.8 6.5 5.8 1 4.8 1.6 6 3.7 6.8 3.1 1.1 9.6-1.6 10.1-4.3.2-.9-.9-4.2-2.3-7.4-3.1-6.8-4.8-14.5-3.4-15.9.6-.6 3.8.5 9.2 3.3 9.3 4.8 10.7 5 10.7 2.1 0-3.7-2.9-8.3-10.5-16.9-11.7-13.2-13.9-19.9-8.9-27.5 5.7-8.5 13.2-15.2 30.7-27 12-8.1 12.3-8.5 10.8-13.6-.7-2.3-3.5-8.3-6.2-13.5-2.7-5.1-4.9-9.9-4.9-10.7 0-1.8 6.5-4.3 15.2-5.8 5-.8 10.2-.8 19.5-.1 12.1 1 17.8.8 18.7-.7.6-.9-4-18.1-5.1-19.2-.4-.4-3.3-1.7-6.3-2.8-8.5-3.2-17.2-2.8-30.5 1.3-6 1.9-14.6 4.4-19 5.6-8.7 2.4-14.1 4.5-16.7 6.8-2.8 2.3-3.8.5-3.8-7.1.1-7.5 2.4-25.9 3.5-27.7.5-.8 4.1-.9 11.4-.4l10.7.7 7.2-4.7c5.7-3.6 7.2-5.1 7.2-7 0-1.3 1.2-7.3 2.6-13.2 3.3-13.8 3.1-22.9-.6-27-1.4-1.5-4.7-3.7-7.5-5-4.2-2-6.5-2.4-14-2.3-4.9 0-10.3.5-11.8.9zm-98.4 118.7-.1 21.7-2.7.8c-1.5.4-3.4.4-4.2.1-.8-.3-3.5-4.7-5.9-9.6-5.7-11.7-5.8-13.9-.4-9.7 6.3 4.9 9 1.2 9-12.2 0-8.9.2-9.8 2.2-11.2 1.2-.9 2.3-1.6 2.3-1.6s-.1 9.8-.2 21.7zm73.5 29.2c3.1 1.9-13 28.5-23.4 38.6-7.3 7.1-7.6 8.6-3.2 14.5 3.6 5 2.4 5.5-11.1 5.2l-12.1-.3V461c0-12.3 1.5-22.6 4.1-28.4 1.5-3.3 7.4-5 14.6-4.2 3.2.3 9.2.9 13.4 1.2l7.7.6 1.5-6.7c.9-3.8 2.2-7.2 2.9-7.6 1.7-1.1 3.9-1.1 5.6 0z"/><path d="M456.7 293.6c-.4.4-.7 14.8-.7 32.1V357l2.6 1c1.4.6 3.8 1 5.4 1 3.5 0 4 1.3 4 10 0 4.8-.4 7.1-1.5 8-.8.7-6.1 3.1-11.7 5.5l-10.3 4.2.1 3.9c0 2.1.2 6.4.5 9.4l.4 5.5-15 .6c-16 .7-22.3 1.8-29.6 5.5-6.8 3.4-6.8 4.8-.2 7.8 12.4 5.7 20.6 14.5 23.1 24.8.8 3.1 1.2 16.6 1.2 40.2 0 19.5.4 35.7.9 36 1.6 1.1 4.1-3.1 5.7-9.7 1.3-5.3 2.2-6.8 3.8-7.2 1.2-.3 19.2-.4 40.1-.3l38 .3 1 7.3c.6 4 1.4 7.4 1.9 7.5.5.1 1.8-1 2.8-2.4 1.8-2.4 2-4.5 2-33 0-16.7.3-34.2.6-38.8l.7-8.5 10.5-7.9c6-4.5 10.6-8.7 10.8-9.8.2-1.3-1.3-3.6-4.4-6.7l-4.9-4.7-.5-11c-.5-10.6-.6-11-3-11.7-18.9-5.3-33.4-10.2-35.7-12.1-.9-.6-1.3-3.7-1.3-8.8 0-9-1.3-8 14-10.5 5.8-.9 11.3-2.1 12.3-2.6 1.5-.8 1.7-2.5 1.7-13.2 0-12-.1-12.4-2.9-16.3-5.6-7.7-20.2-22.2-23.4-23.2-5.8-1.8-37.8-4.7-39-3.5zm-5.1 239.6c-14.6 3.1-19.7 23.1-8.5 33.3 4.3 3.9 8.8 5 15.6 4 12-1.8 18.2-18.1 11.2-29.9-3.3-5.7-11.3-8.9-18.3-7.4zm8.6 8.7c3 2.7 3.3 3.3 3.3 9.4 0 8.9-2.3 12.2-8.6 12.2-3.8 0-4.6-.4-6.7-3.5-2.1-3-2.3-4.3-1.9-9.5.5-5.1 1-6.4 3.6-8.7 4-3.6 6.3-3.5 10.3.1zm154.4-8.4c-5.3 1.9-7.7 4.5-8.3 9.2-.4 3.2 0 4.4 2.1 7 1.4 1.7 4.5 4 6.9 5.1 5.8 2.7 7.2 4.5 5.7 7.3-1 1.8-1.8 2.1-5.8 1.6-2.6-.2-5.3-.6-6.1-.8-1.9-.5-3.9 4.7-2.4 6.2 1.6 1.6 11.6 2.3 15.6 1 4.7-1.6 7.7-5.8 7.7-10.9 0-3.3-.6-4.5-3.5-7.1-2-1.7-5-3.7-6.8-4.4-1.8-.8-3.9-2.2-4.7-3.2-2.2-2.7 1.2-4.7 7.5-4.3 5 .3 5 .3 5.3-2.9.3-2.8 0-3.2-3-3.8-1.8-.3-4-.8-4.8-1-.8-.2-3.3.2-5.4 1zm-470.3.6c-.7.7-.8 2.2-.2 4.2.8 3.3 5.4 22.3 6.3 26.7.9 4 2.2 5.2 5.9 5.6 4.5.5 5-.3 7.2-11.7 1-4.6 2.1-9.1 2.6-9.9 1-1.9 1.2-1.3 3.5 10.8 1.5 8.3 2 9.5 4.2 10.3 3 1.1 5.9.4 7.1-1.9.4-.9 2.3-7.6 4.1-14.7 1.8-7.2 3.6-14 4.1-15.2.5-1.3.6-3 .3-3.8-.7-1.8-5.7-2-7.2-.2-1.2 1.4-4.2 14.9-4.2 18.9 0 1.5-.4 3-1 3.3-1 .6-1.3-.1-3.5-12.4-1.7-9.6-2.6-11.1-6.5-11.1s-4.8 1.6-6.9 12.5c-1.1 5.3-2.1 9.9-2.4 10.2-1 1-2.4-3.3-3.7-11.2-.7-4.4-1.6-8.8-2.1-9.8-1.1-1.9-5.9-2.3-7.6-.6zm58.2.5c-6.7 3.5-10.4 9.7-10.5 17.5 0 14.5 13.3 23.1 26 16.6 7.5-3.7 10.9-11.5 9.4-21.2-.7-5.1-5.4-11.2-10-13.1-4.4-1.8-11.2-1.8-14.9.2zm12.5 7.2c7.1 7.1 3.9 22.2-4.7 22.4-6.1.2-9.8-5.5-9.1-14 .4-4.7 1-6 3.7-8.4 4-3.5 6.5-3.5 10.1 0zm22-8-3.5.7-.3 17.3-.2 17.2 2.4 1.1c4.2 2 5.6.6 5.6-5.5 0-7 .7-8.6 3.6-8.6 2.8 0 5.3 3.3 6.1 8.3.8 5.5 7.4 9.2 9 5.2.6-1.8-1.4-9.9-3.5-13.6-1.3-2.3-1.2-2.8 1.2-6.3 1.4-2.2 2.6-4.7 2.6-5.7 0-3.2-2.3-7-5.2-8.5-3.2-1.7-12.8-2.5-17.8-1.6zm11.8 6.8c4.3 3 1.4 9.4-4.4 9.4-2.3 0-3.4-1.7-3.4-5.5 0-5.5 3.2-7.2 7.8-3.9zm17.4-6.4c-.8.8-1.2 6.1-1.2 17.4 0 13.4.3 16.5 1.6 17.8 1.8 1.9 2.8 2 5.5.6 1.5-.8 1.9-2.1 1.9-6 0-10.1 2.4-10.6 7.5-1.5 3.7 6.6 5.8 8.5 9.5 8.5 3.8 0 3.3-2.9-1.9-11.6-2.8-4.7-5.1-9.2-5.1-10.1 0-.8 2-4.1 4.5-7.3 5.7-7.4 5.8-9 .5-9-3.8 0-4.2.3-8.6 7-2.6 3.8-5.1 6.7-5.5 6.4-.5-.3-.9-3.1-.9-6.4 0-4.3-.4-5.9-1.6-6.4-2.5-.9-4.9-.7-6.2.6zm45.1-.5c-1 .3-1.3 4.9-1.3 17.9 0 17.4 0 17.4 2.4 18.5 1.7.8 2.9.8 4.5 0 2-1.1 2.1-1.9 2.1-17.9 0-11.7-.4-17.2-1.2-18-1.2-1.2-4.3-1.5-6.5-.5zm15.1.6c-.2.7-.3 8.9-.2 18.1.3 14.8.5 17 2.1 18 1.2.8 2.2.8 3.5 0 1.4-.9 1.8-3.1 2.2-12.8l.5-11.7 6.1 11.3c6.5 12 9.1 14.6 13.7 13.4l2.7-.6-.2-18.3c-.3-18.2-.3-18.2-2.6-18.5-4.5-.7-5.4 1.3-5.1 12 .2 5.3 0 10-.3 10.4-.4.3-1.4-1.2-2.4-3.3-3.1-6.5-9.6-17.8-10.8-18.5-1.9-1.3-8.6-.9-9.2.5zm51.6-.5-3.5.7-.3 16.7c-.2 14.1 0 16.8 1.3 18.2 2 1.9 4.9 2.1 6.3.3.6-.7 1.2-3.7 1.4-6.7l.3-5.5 4.7-.7c8.5-1.2 12.8-5.2 12.8-11.8 0-4.2-2-7.9-5-9.5-3.2-1.7-13.2-2.6-18-1.7zm11.4 6.3c4.8 2.2 3.6 9.1-1.9 10.5-3.6.9-4.5-.2-4.5-5.5 0-6.4 1.2-7.3 6.4-5zm20.6-6.3-3.5.7-.3 17.1c-.2 14.6 0 17.3 1.3 18.4 1.2 1 2.4 1.1 4.3.4 2.5-.9 2.7-1.4 3-7.7.3-6.2.4-6.7 2.6-6.7 2.6 0 5.6 2.8 5.6 5.2 0 2.2 2.8 8.5 4 9.3.6.4 2.3.4 3.7 0 2.4-.6 2.5-.9 1.9-5.1-.3-2.4-1.5-6.3-2.7-8.5l-2-4.1 2-2.2c4.2-4.6 3.9-11.2-.7-14.5-3.2-2.2-13.2-3.4-19.2-2.3zm12.6 7.7c2.1 2.1 2.3 2.8 1.4 4.5-1.4 2.6-5.3 4.5-7.4 3.7-1.1-.5-1.6-2-1.6-5 0-2.4.3-4.7.7-5 1.4-1.4 4.5-.6 6.9 1.8zm66.1-7.1c-7.9 2.9-11.8 8.8-11.9 17.9 0 7.9 1.8 11.8 7.4 15.5 3.7 2.4 5 2.7 12.7 2.7 5.1 0 9.5-.6 10.9-1.3 2.1-1.2 2.3-1.8 2-10l-.3-8.7h-7c-6.3 0-7 .2-7 2 0 1.2 1.1 2.5 2.8 3.3 2.2 1.1 2.7 2 2.7 4.8 0 3.6-.5 3.9-6 3.4-9.5-.8-12.9-14.1-5.4-21.1 2.2-2.1 3.6-2.4 9.6-2.4 6.5-.1 7.2-.3 8.2-2.4.8-1.9.7-2.6-.9-3.7-2.4-1.8-12.8-1.8-17.8 0zm30.3-.6-3.5.7-.3 17.2c-.2 16.7-.2 17.2 1.9 18.4 1.6.8 2.8.8 4.5 0 2.2-1 2.4-1.7 2.4-7.6 0-6.3.1-6.5 2.5-6.5 3 0 4.9 2.8 6.5 9.2 1 4 1.6 4.8 4.2 5.3 4 .9 6.5-1.3 4.9-4.3-.6-1.1-1.1-2.9-1.1-3.9s-.9-3.6-2.1-5.7l-2-3.8 2-2.2c4.5-4.7 3.5-12.3-1.8-15.1-3.5-1.8-13-2.7-18.1-1.7zm12.7 7.6c2.3 2 2.6 2.8 1.7 4.3-1.6 2.6-5.8 4.7-7.7 4-1.2-.5-1.7-1.9-1.7-5 0-2.4.3-4.7.7-5 1.3-1.4 4.3-.6 7 1.7zm16.7-7.1c-.2.7-.3 9.1-.2 18.7l.3 17.5h22v-7l-7-.5-7-.5v-7l6-.3c6.9-.4 8-1.1 7.1-4.6-.6-2.3-1.1-2.5-6.9-2.8-6.2-.3-6.2-.3-6.2-3.3 0-2.8.2-3 4.5-3.3 7.9-.4 9-.9 9-4.1 0-3.7-1.2-4.1-12.1-4.1-6.4 0-9.1.4-9.5 1.3zm33.4.4c-1.5.9-3.5 3.4-4.4 5.6-1.7 3.8-1.7 4 .1 7.6 1.5 2.6 3.7 4.4 8 6.6 6.2 3.1 7.7 5.4 5.4 8.2-1.1 1.2-2.5 1.4-7.1.9-5.1-.6-5.8-.5-6.8 1.5-1.7 3.1.7 5.1 6.9 5.7 10.7 1 18.2-5 16.7-13.4-.7-3.5-6.7-9.4-9.6-9.4-.8 0-2.6-.9-4-2-2.1-1.6-2.3-2.2-1.4-3.7.9-1.3 2.4-1.8 6-1.8 2.7 0 5.5-.4 6.2-.8 1.8-1.2 1.4-4.5-.7-5.7-3.1-1.6-12.2-1.2-15.3.7z"/></svg>