<?xml version="1.0" standalone="no"?>
<!DOCTYPE svg PUBLIC "-//W3C//DTD SVG 20010904//EN"
 "http://www.w3.org/TR/2001/REC-SVG-20010904/DTD/svg10.dtd">
<svg version="1.0" xmlns="http://www.w3.org/2000/svg"
 width="888.000000pt" height="888.000000pt" viewBox="0 0 888.000000 888.000000"
 preserveAspectRatio="xMidYMid meet">
<metadata>
Created by potrace 1.14, written by Peter Selinger 2001-2017
</metadata>
<g transform="translate(0.000000,888.000000) scale(0.100000,-0.100000)"
fill="#000000" stroke="none">
<path d="M4103 8830 c-24 -3 -44 -8 -47 -11 -2 -2 -7 -26 -10 -53 -4 -27 -9
-52 -10 -55 -2 -3 -6 -28 -10 -56 -3 -27 -8 -61 -10 -75 -3 -14 -7 -41 -10
-60 -3 -19 -8 -48 -11 -65 -31 -183 -33 -197 -34 -216 -1 -9 -7 -16 -13 -16
-29 -2 -115 -13 -138 -18 -14 -4 -38 -8 -55 -10 -44 -5 -289 -56 -298 -62 -5
-3 -21 -7 -36 -9 -16 -3 -84 -22 -152 -44 -116 -37 -124 -38 -139 -22 -31 35
-70 91 -70 101 0 6 -4 11 -8 11 -4 0 -15 12 -24 28 -9 15 -39 57 -67 95 -28
37 -48 67 -45 67 3 0 -7 12 -21 27 -14 15 -25 33 -25 40 0 7 -4 13 -8 13 -4 0
-15 12 -24 28 -9 15 -25 37 -36 50 l-20 23 -53 -24 c-30 -13 -58 -25 -64 -27
-24 -6 -57 -21 -131 -56 -44 -21 -82 -37 -86 -36 -5 1 -8 -2 -8 -8 0 -5 -6
-10 -13 -10 -8 0 -68 -30 -136 -66 -138 -74 -132 -63 -93 -179 11 -33 41 -132
67 -220 25 -88 53 -179 61 -203 8 -24 12 -48 8 -53 -3 -5 -24 -22 -47 -36 -23
-14 -44 -29 -47 -32 -3 -3 -17 -13 -31 -21 -30 -17 -43 -26 -167 -120 -48 -36
-94 -72 -102 -80 -9 -8 -34 -29 -55 -47 -22 -17 -71 -61 -110 -98 -86 -81
-101 -91 -113 -69 -5 9 -13 16 -18 16 -8 -1 -90 42 -134 69 -8 5 -31 17 -50
27 -19 10 -71 39 -115 64 -44 25 -106 60 -139 77 l-59 32 -34 -38 c-80 -88
-100 -111 -143 -163 -25 -30 -47 -57 -50 -60 -12 -11 -178 -236 -188 -256 -9
-17 -4 -27 36 -70 26 -28 88 -95 137 -149 113 -124 138 -150 188 -202 l40 -42
-71 -123 c-39 -68 -79 -141 -89 -163 -10 -22 -24 -46 -30 -53 -7 -7 -13 -17
-13 -22 0 -5 -18 -48 -41 -96 -22 -49 -59 -134 -81 -191 l-40 -103 -87 5 c-47
3 -111 7 -141 10 -48 3 -126 8 -327 20 -31 2 -56 -2 -61 -9 -8 -10 -55 -168
-68 -228 -15 -68 -14 -66 -33 -143 -10 -40 -19 -88 -26 -135 -3 -14 -7 -36
-10 -50 -3 -14 -7 -41 -10 -61 l-4 -36 285 -113 285 -114 -8 -90 c-9 -106 -7
-581 2 -677 l7 -66 -49 -18 c-26 -10 -66 -25 -88 -35 -47 -20 -392 -155 -417
-164 -17 -5 -18 -30 -4 -99 2 -7 6 -34 10 -62 4 -27 10 -57 13 -65 3 -8 8 -24
10 -35 4 -24 25 -126 29 -140 2 -5 5 -19 7 -30 13 -55 40 -151 55 -195 7 -20
9 -28 11 -40 0 -5 28 -8 64 -5 34 2 105 6 157 10 52 3 124 8 160 10 36 2 104
6 151 10 l86 6 24 -58 c13 -32 24 -60 24 -63 0 -3 7 -16 15 -30 7 -14 12 -25
11 -25 -2 0 0 -12 4 -28 4 -15 11 -27 16 -27 5 0 9 -6 9 -13 0 -8 13 -41 30
-75 16 -34 30 -67 30 -72 0 -6 5 -10 12 -10 6 0 9 -3 5 -6 -3 -3 5 -23 18 -44
13 -21 21 -41 18 -44 -4 -3 -1 -6 5 -6 7 0 12 -7 12 -15 0 -9 5 -21 10 -28 21
-24 121 -200 118 -208 -2 -4 -30 -36 -63 -71 -33 -36 -103 -111 -155 -168 -52
-56 -116 -126 -142 -154 -26 -28 -48 -53 -48 -56 0 -3 25 -38 55 -78 30 -40
55 -78 55 -83 0 -5 3 -9 8 -9 4 0 18 -17 32 -37 14 -20 32 -44 40 -52 9 -9 36
-41 60 -71 25 -30 50 -60 55 -66 6 -6 34 -38 64 -71 42 -48 57 -60 74 -55 12
3 24 8 27 12 3 4 39 25 80 47 89 47 151 82 242 134 36 22 71 39 76 39 5 0 15
7 22 15 7 9 15 13 18 11 2 -3 11 1 19 9 24 25 45 17 104 -38 148 -139 320
-277 466 -374 133 -88 126 -77 102 -153 -11 -36 -22 -74 -25 -85 -3 -11 -6
-24 -8 -30 -6 -24 -58 -195 -77 -254 -12 -35 -22 -69 -23 -75 -1 -6 -4 -15 -7
-21 -3 -5 -5 -21 -5 -34 1 -21 22 -35 151 -102 142 -73 380 -182 446 -202 16
-5 49 24 49 43 0 6 5 10 10 10 6 0 10 5 10 10 0 6 5 16 10 23 11 12 97 132
122 171 7 10 22 31 33 45 11 14 34 46 50 71 17 25 33 50 38 55 4 6 16 22 27
37 l20 27 53 -16 c28 -8 57 -18 62 -21 6 -4 19 -8 30 -10 11 -1 51 -12 90 -23
38 -12 81 -23 95 -26 14 -2 43 -9 65 -15 22 -5 51 -12 65 -14 14 -2 36 -7 50
-10 41 -10 60 -13 104 -18 22 -3 50 -7 61 -10 11 -2 46 -7 77 -10 32 -4 60
-11 63 -16 2 -4 7 -25 10 -46 3 -22 10 -61 15 -89 6 -27 12 -63 14 -80 11 -75
23 -150 26 -150 1 0 3 -13 4 -30 5 -51 17 -128 27 -167 9 -34 12 -36 57 -40
95 -9 621 -3 631 7 6 6 13 31 15 55 3 25 8 56 11 70 11 54 15 77 20 115 3 23
8 52 11 65 3 14 7 41 9 60 2 19 4 36 5 38 2 1 3 10 4 20 1 9 6 37 10 62 4 25
10 58 12 74 7 42 8 43 71 50 87 11 131 18 249 41 43 9 90 18 104 21 14 3 50
12 80 20 30 8 65 17 76 19 12 3 52 14 89 26 38 11 75 22 84 24 9 2 28 8 43 13
32 13 24 22 163 -178 59 -85 110 -157 114 -160 3 -3 28 -38 55 -78 26 -39 50
-72 52 -72 4 0 92 35 164 66 19 8 52 24 73 35 22 10 45 19 53 19 8 0 14 5 14
10 0 6 6 10 13 10 15 0 101 42 105 53 2 4 12 7 23 7 10 0 19 5 19 12 0 6 3 9
6 5 3 -3 27 8 54 24 26 16 50 29 54 29 11 0 36 27 36 38 0 5 -10 43 -23 83
-36 113 -59 192 -61 206 -1 7 -5 16 -9 19 -4 4 -7 17 -7 29 0 12 -3 25 -7 29
-4 3 -8 12 -9 19 -1 7 -7 30 -13 52 -6 22 -10 42 -9 45 1 3 -4 16 -11 28 -25
46 -23 68 7 83 31 16 274 187 313 221 15 13 43 36 62 51 50 40 112 94 169 148
26 25 48 43 48 40 0 -3 5 2 11 11 14 25 38 22 90 -10 24 -15 55 -33 69 -40 14
-7 43 -23 65 -35 22 -13 56 -32 75 -42 19 -11 43 -26 53 -34 9 -8 17 -11 17
-8 0 4 25 -9 55 -28 30 -20 55 -32 55 -28 0 4 4 4 8 -2 4 -5 22 -18 40 -28
l33 -19 27 29 c82 88 137 152 212 246 8 11 20 24 25 31 12 13 112 148 144 194
26 37 29 29 -44 106 -16 18 -57 62 -90 98 -33 36 -98 107 -145 158 -120 131
-116 123 -85 167 14 21 25 43 25 49 0 7 4 14 8 16 11 4 154 267 157 288 0 3 6
14 12 25 12 22 104 234 108 250 1 6 8 25 15 43 l12 33 87 -5 c150 -11 203 -14
301 -21 52 -3 125 -8 161 -10 66 -5 67 -5 75 23 4 15 7 30 6 35 -1 4 3 7 10 7
6 0 9 3 6 6 -3 3 5 44 18 92 23 82 29 108 39 157 2 11 8 38 14 60 5 22 12 56
16 75 3 19 10 58 15 85 21 106 20 124 -3 131 -12 4 -40 15 -62 24 -22 10 -140
58 -263 106 l-223 88 7 70 c9 100 10 574 1 678 -8 85 -8 86 15 93 13 4 37 13
53 20 91 40 204 82 209 77 3 -3 6 0 6 6 0 7 9 12 19 12 11 0 22 4 26 9 3 5 20
13 37 17 18 3 39 10 48 15 8 4 33 15 55 24 75 30 90 41 88 61 -6 66 -15 129
-19 136 -3 4 -7 22 -9 40 -2 18 -6 40 -8 48 -4 17 -16 74 -22 105 -2 11 -4 20
-5 20 -1 0 -3 7 -5 15 -3 18 -39 151 -61 227 l-15 51 -67 -3 c-37 -2 -107 -6
-157 -10 -49 -4 -117 -8 -150 -10 -33 -2 -101 -7 -151 -10 l-92 -6 -27 73
c-29 76 -48 121 -96 226 -16 35 -29 67 -29 72 0 5 -6 15 -12 22 -7 7 -26 40
-42 73 -15 33 -53 103 -84 155 -31 52 -55 98 -54 103 1 4 -3 7 -8 7 -23 0 -5
30 63 101 40 42 107 114 149 160 42 46 102 111 132 144 31 33 56 62 56 65 0 8
-164 229 -211 284 -104 122 -167 195 -189 219 l-25 27 -55 -28 c-30 -16 -108
-59 -174 -95 -65 -37 -122 -67 -127 -67 -5 0 -9 -4 -9 -9 0 -5 -12 -14 -27
-20 -16 -5 -55 -26 -88 -45 l-60 -34 -61 57 c-156 145 -317 275 -469 376 -50
33 -91 63 -93 68 -2 4 -10 7 -18 7 -17 0 -18 8 0 62 14 44 52 169 101 333 15
50 34 113 42 142 14 44 14 53 2 65 -13 13 -407 215 -419 215 -3 0 -27 10 -54
21 -27 12 -52 22 -56 22 -4 0 -22 7 -40 16 -31 16 -34 16 -46 -2 -7 -10 -19
-26 -26 -34 -7 -8 -26 -35 -42 -60 -16 -25 -32 -47 -36 -50 -3 -3 -15 -20 -25
-37 -11 -18 -23 -33 -27 -33 -4 0 -8 -5 -8 -11 0 -6 -11 -25 -25 -43 -32 -39
-30 -37 -89 -124 -27 -40 -55 -77 -61 -82 -8 -7 -33 -2 -76 13 -35 13 -68 24
-74 25 -5 2 -28 7 -50 13 -22 6 -44 12 -50 14 -5 1 -17 4 -25 7 -21 8 -200 48
-230 52 -14 2 -36 6 -50 10 -14 3 -41 8 -60 11 -147 20 -196 28 -202 34 -6 5
-20 77 -33 171 -2 14 -4 25 -5 25 -1 0 -3 14 -5 30 -2 17 -6 41 -8 55 -3 14
-8 43 -11 65 -3 22 -8 51 -11 65 -8 40 -18 103 -19 130 -1 14 -7 34 -13 45
-11 19 -23 20 -305 21 -161 0 -312 -2 -335 -6z m567 -1083 c30 -4 80 -9 110
-13 30 -3 69 -7 85 -9 17 -2 30 -4 30 -5 0 -1 14 -3 30 -5 17 -2 46 -7 65 -10
19 -4 46 -9 60 -11 14 -2 36 -7 50 -10 54 -13 76 -17 93 -18 9 0 17 -3 17 -6
0 -3 28 -12 63 -20 82 -18 70 -14 172 -48 97 -32 162 -56 212 -78 17 -8 33
-14 36 -14 14 0 264 -121 352 -170 158 -88 422 -266 433 -292 2 -4 8 -8 13 -8
6 0 21 -10 34 -22 13 -13 45 -41 72 -63 65 -54 297 -286 358 -359 28 -32 55
-64 60 -70 15 -17 115 -152 167 -226 39 -57 81 -124 140 -225 37 -63 157 -305
151 -305 -3 0 2 -9 12 -20 10 -11 16 -23 12 -26 -3 -3 3 -21 13 -40 21 -37
120 -326 120 -349 0 -9 4 -23 9 -33 5 -9 15 -44 22 -77 7 -33 14 -64 15 -70 6
-25 23 -114 28 -150 4 -23 8 -50 10 -60 38 -205 48 -589 22 -825 -9 -77 -18
-142 -22 -164 -2 -11 -6 -38 -10 -61 -3 -22 -9 -58 -14 -80 -5 -22 -11 -53
-14 -70 -4 -23 -40 -162 -60 -230 -3 -10 -28 -95 -31 -105 -1 -3 -5 -12 -8
-20 -3 -8 -20 -53 -36 -99 -17 -46 -41 -107 -53 -135 -34 -79 -171 -346 -203
-396 -16 -25 -27 -47 -26 -49 2 -2 -1 -7 -6 -10 -13 -9 -73 -100 -73 -110 0
-5 -3 -11 -7 -13 -5 -1 -31 -35 -59 -74 -55 -76 -60 -82 -148 -188 -54 -65
-281 -295 -352 -357 -16 -14 -67 -55 -114 -92 -47 -36 -99 -77 -116 -91 -18
-15 -36 -26 -42 -26 -6 0 -12 -4 -14 -8 -8 -21 -240 -163 -397 -242 -146 -74
-404 -182 -466 -195 -11 -3 -31 -9 -45 -15 -21 -8 -140 -42 -190 -55 -51 -12
-191 -41 -249 -51 -18 -3 -42 -7 -53 -9 -11 -3 -46 -7 -77 -11 -31 -3 -65 -8
-76 -10 -113 -22 -631 -22 -750 0 -11 2 -47 7 -80 11 -213 28 -341 57 -570
129 -60 19 -123 40 -140 47 -16 6 -34 13 -40 15 -27 7 -189 76 -260 111 -215
107 -337 180 -520 313 -86 62 -103 75 -146 112 -11 9 -39 31 -62 50 -46 37
-284 272 -337 333 -28 32 -110 132 -148 180 -31 41 -132 185 -142 205 -7 14
-16 27 -19 30 -30 22 -251 448 -251 481 0 11 -4 19 -10 19 -5 0 -10 6 -10 12
0 11 -17 60 -51 143 -4 11 -13 38 -20 60 -6 22 -16 49 -20 60 -17 38 -67 231
-74 285 -2 14 -4 25 -5 25 -2 0 -5 14 -23 115 -15 84 -21 124 -35 250 -8 79
-7 575 2 645 7 56 17 132 21 155 2 8 6 35 10 60 4 25 9 54 12 65 2 11 6 29 7
40 2 11 8 40 14 65 6 25 13 56 15 70 3 14 10 36 15 50 5 14 10 27 10 30 0 17
55 199 71 235 4 11 27 70 51 130 46 118 182 391 231 463 16 23 29 45 29 48 0
4 123 184 142 209 5 6 22 28 39 50 105 137 158 195 321 357 82 81 158 150 169
153 11 4 17 11 14 16 -4 5 -3 9 2 9 4 0 20 10 35 23 14 12 36 29 48 37 12 8
30 22 40 30 30 26 111 82 195 137 44 29 85 56 90 61 6 4 24 15 40 23 17 8 57
30 90 49 88 49 206 106 314 151 53 22 105 44 116 49 11 5 38 14 60 21 22 6 46
16 53 22 6 5 12 7 12 3 0 -3 17 1 38 9 38 14 119 38 137 40 6 1 35 8 65 17 53
16 127 32 245 54 17 3 44 7 60 9 17 2 48 7 70 10 63 10 103 14 200 21 50 3 91
7 92 8 5 5 385 -2 433 -7z"/>
</g>
</svg>
